<svg width="20" height="22" viewBox="0 0 20 22" fill="none" xmlns="http://www.w3.org/2000/svg">
<path fill-rule="evenodd" clip-rule="evenodd" d="M10.28 18.7828C10.9837 18.7309 11.6813 18.6099 12.364 18.4216C13.2065 18.6947 14.0972 18.7566 14.966 18.6022C15.0004 18.5963 15.0352 18.5934 15.07 18.5937C15.38 18.5937 15.787 18.7849 16.38 19.1887V18.5246C16.3801 18.4097 16.409 18.2969 16.4636 18.1978C16.5183 18.0987 16.5967 18.0168 16.691 17.9604C16.949 17.8053 17.189 17.6268 17.408 17.4303C18.272 16.6525 18.76 15.6155 18.76 14.5169C18.76 14.1482 18.705 13.7901 18.601 13.448C18.862 12.9306 19.073 12.3866 19.228 11.8224C19.7292 12.6203 19.9977 13.5576 20 14.5169C20 16.0097 19.346 17.4016 18.215 18.4194C18.0262 18.5892 17.8275 18.7461 17.62 18.8891V20.4414C17.62 20.9758 17.04 21.2829 16.631 20.9652C16.2442 20.658 15.8438 20.3708 15.431 20.1046C15.3128 20.0294 15.1898 19.963 15.063 19.9059C14.723 19.9601 14.375 19.9877 14.024 19.9877C12.612 19.9877 11.307 19.5383 10.28 18.7828ZM2.814 15.6782C1.03 14.0706 0 11.8808 0 9.53375C0 4.73869 4.258 0.90625 9.457 0.90625C14.657 0.90625 18.915 4.73869 18.915 9.53375C18.915 14.3299 14.656 18.1623 9.457 18.1623C8.873 18.1623 8.295 18.1145 7.729 18.0189C7.484 18.0805 6.505 18.6989 5.094 19.7932C4.583 20.1906 3.858 19.8071 3.858 19.1388V16.491C3.4926 16.2462 3.14375 15.9746 2.814 15.6782ZM7.763 16.3858C7.806 16.3858 7.85 16.389 7.893 16.3964C8.403 16.4878 8.927 16.5346 9.457 16.5346C13.849 16.5346 17.364 13.3704 17.364 9.53375C17.364 5.69812 13.849 2.534 9.457 2.534C5.067 2.534 1.55 5.69812 1.55 9.53375C1.55 11.3889 2.371 13.1356 3.823 14.4425C4.188 14.7698 4.589 15.0673 5.019 15.3265C5.26 15.471 5.409 15.7409 5.409 16.032V17.5588C6.525 16.763 7.259 16.3858 7.763 16.3858ZM5.426 11.1626C4.741 11.1626 4.186 10.5782 4.186 9.85994C4.186 9.14063 4.741 8.55731 5.426 8.55731C6.111 8.55731 6.666 9.14063 6.666 9.85994C6.666 10.5793 6.111 11.1626 5.426 11.1626ZM9.457 11.1626C8.772 11.1626 8.217 10.5782 8.217 9.85994C8.217 9.14063 8.772 8.55731 9.457 8.55731C10.142 8.55731 10.697 9.14063 10.697 9.85994C10.697 10.5793 10.142 11.1626 9.457 11.1626ZM13.488 11.1626C12.803 11.1626 12.248 10.5782 12.248 9.85994C12.248 9.14063 12.803 8.55731 13.488 8.55731C14.173 8.55731 14.728 9.14063 14.728 9.85994C14.728 10.5793 14.173 11.1626 13.488 11.1626Z" fill="white"/>
</svg>
